<mxfile host="app.diagrams.net" modified="2024-05-11T15:10:56.794Z" agent="Mozilla/5.0 (Windows NT 10.0; Win64; x64) AppleWebKit/537.36 (KHTML, like Gecko) Chrome/124.0.0.0 Safari/537.36" etag="D7osXQoosJIANI7nVCj8" version="24.3.1" type="device">
  <diagram name="第 1 页" id="kJVCzpLCp-X2QJWPgAao">
    <mxGraphModel dx="860" dy="348" grid="0" gridSize="10" guides="1" tooltips="1" connect="1" arrows="1" fold="1" page="1" pageScale="1" pageWidth="827" pageHeight="1169" math="0" shadow="0">
      <root>
        <mxCell id="0" />
        <mxCell id="1" parent="0" />
        <mxCell id="NZRX_I5dMStPqbxFYzXw-2" value="" style="shape=partialRectangle;whiteSpace=wrap;html=1;bottom=0;right=0;fillColor=none;" vertex="1" parent="1">
          <mxGeometry x="136" y="238" width="179" height="36" as="geometry" />
        </mxCell>
        <mxCell id="NZRX_I5dMStPqbxFYzXw-3" value="" style="ellipse;whiteSpace=wrap;html=1;aspect=fixed;fillColor=#DBDBDB;" vertex="1" parent="1">
          <mxGeometry x="121" y="274" width="29" height="29" as="geometry" />
        </mxCell>
        <mxCell id="NZRX_I5dMStPqbxFYzXw-4" value="" style="endArrow=none;html=1;rounded=0;" edge="1" parent="1">
          <mxGeometry width="50" height="50" relative="1" as="geometry">
            <mxPoint x="136" y="330" as="sourcePoint" />
            <mxPoint x="136" y="303" as="targetPoint" />
          </mxGeometry>
        </mxCell>
        <mxCell id="NZRX_I5dMStPqbxFYzXw-5" value="" style="endArrow=none;html=1;rounded=0;" edge="1" parent="1">
          <mxGeometry width="50" height="50" relative="1" as="geometry">
            <mxPoint x="122.25" y="330" as="sourcePoint" />
            <mxPoint x="148.75" y="330" as="targetPoint" />
          </mxGeometry>
        </mxCell>
        <mxCell id="NZRX_I5dMStPqbxFYzXw-6" value="" style="endArrow=none;html=1;rounded=0;" edge="1" parent="1">
          <mxGeometry width="50" height="50" relative="1" as="geometry">
            <mxPoint x="126.13" y="334" as="sourcePoint" />
            <mxPoint x="144.88" y="334" as="targetPoint" />
          </mxGeometry>
        </mxCell>
        <mxCell id="NZRX_I5dMStPqbxFYzXw-7" value="" style="endArrow=none;html=1;rounded=0;" edge="1" parent="1">
          <mxGeometry width="50" height="50" relative="1" as="geometry">
            <mxPoint x="128.06" y="338" as="sourcePoint" />
            <mxPoint x="142.94" y="338" as="targetPoint" />
          </mxGeometry>
        </mxCell>
        <mxCell id="NZRX_I5dMStPqbxFYzXw-8" value="" style="endArrow=none;html=1;rounded=0;" edge="1" parent="1">
          <mxGeometry width="50" height="50" relative="1" as="geometry">
            <mxPoint x="201" y="276" as="sourcePoint" />
            <mxPoint x="201" y="238" as="targetPoint" />
          </mxGeometry>
        </mxCell>
        <mxCell id="NZRX_I5dMStPqbxFYzXw-11" value="" style="endArrow=none;html=1;rounded=0;" edge="1" parent="1">
          <mxGeometry width="50" height="50" relative="1" as="geometry">
            <mxPoint x="204" y="299" as="sourcePoint" />
            <mxPoint x="202" y="275" as="targetPoint" />
            <Array as="points">
              <mxPoint x="197" y="296" />
              <mxPoint x="204" y="291" />
              <mxPoint x="196" y="288" />
              <mxPoint x="203" y="283" />
              <mxPoint x="196" y="280" />
            </Array>
          </mxGeometry>
        </mxCell>
        <mxCell id="NZRX_I5dMStPqbxFYzXw-13" value="" style="endArrow=none;html=1;rounded=0;" edge="1" parent="1">
          <mxGeometry width="50" height="50" relative="1" as="geometry">
            <mxPoint x="202.75" y="330" as="sourcePoint" />
            <mxPoint x="203" y="299" as="targetPoint" />
          </mxGeometry>
        </mxCell>
        <mxCell id="NZRX_I5dMStPqbxFYzXw-14" value="" style="endArrow=none;html=1;rounded=0;" edge="1" parent="1">
          <mxGeometry width="50" height="50" relative="1" as="geometry">
            <mxPoint x="189" y="330" as="sourcePoint" />
            <mxPoint x="215.5" y="330" as="targetPoint" />
          </mxGeometry>
        </mxCell>
        <mxCell id="NZRX_I5dMStPqbxFYzXw-15" value="" style="endArrow=none;html=1;rounded=0;" edge="1" parent="1">
          <mxGeometry width="50" height="50" relative="1" as="geometry">
            <mxPoint x="192.88" y="334" as="sourcePoint" />
            <mxPoint x="211.63" y="334" as="targetPoint" />
          </mxGeometry>
        </mxCell>
        <mxCell id="NZRX_I5dMStPqbxFYzXw-16" value="" style="endArrow=none;html=1;rounded=0;" edge="1" parent="1">
          <mxGeometry width="50" height="50" relative="1" as="geometry">
            <mxPoint x="194.81" y="338" as="sourcePoint" />
            <mxPoint x="209.69" y="338" as="targetPoint" />
          </mxGeometry>
        </mxCell>
        <mxCell id="NZRX_I5dMStPqbxFYzXw-19" value="" style="endArrow=none;html=1;rounded=0;" edge="1" parent="1">
          <mxGeometry width="50" height="50" relative="1" as="geometry">
            <mxPoint x="316" y="238" as="sourcePoint" />
            <mxPoint x="349" y="237" as="targetPoint" />
            <Array as="points">
              <mxPoint x="321" y="243.5" />
              <mxPoint x="326" y="234.5" />
              <mxPoint x="332" y="243" />
              <mxPoint x="338" y="234" />
              <mxPoint x="344" y="244" />
            </Array>
          </mxGeometry>
        </mxCell>
        <mxCell id="NZRX_I5dMStPqbxFYzXw-20" value="" style="endArrow=none;html=1;rounded=0;" edge="1" parent="1">
          <mxGeometry width="50" height="50" relative="1" as="geometry">
            <mxPoint x="349" y="238" as="sourcePoint" />
            <mxPoint x="501" y="238" as="targetPoint" />
          </mxGeometry>
        </mxCell>
        <mxCell id="NZRX_I5dMStPqbxFYzXw-21" value="" style="endArrow=none;html=1;rounded=0;" edge="1" parent="1">
          <mxGeometry width="50" height="50" relative="1" as="geometry">
            <mxPoint x="238" y="276" as="sourcePoint" />
            <mxPoint x="238" y="238" as="targetPoint" />
          </mxGeometry>
        </mxCell>
        <mxCell id="NZRX_I5dMStPqbxFYzXw-23" value="" style="endArrow=none;html=1;rounded=0;" edge="1" parent="1">
          <mxGeometry width="50" height="50" relative="1" as="geometry">
            <mxPoint x="237.75" y="330" as="sourcePoint" />
            <mxPoint x="238" y="283" as="targetPoint" />
          </mxGeometry>
        </mxCell>
        <mxCell id="NZRX_I5dMStPqbxFYzXw-24" value="" style="endArrow=none;html=1;rounded=0;" edge="1" parent="1">
          <mxGeometry width="50" height="50" relative="1" as="geometry">
            <mxPoint x="224" y="330" as="sourcePoint" />
            <mxPoint x="250.5" y="330" as="targetPoint" />
          </mxGeometry>
        </mxCell>
        <mxCell id="NZRX_I5dMStPqbxFYzXw-25" value="" style="endArrow=none;html=1;rounded=0;" edge="1" parent="1">
          <mxGeometry width="50" height="50" relative="1" as="geometry">
            <mxPoint x="227.88" y="334" as="sourcePoint" />
            <mxPoint x="246.63" y="334" as="targetPoint" />
          </mxGeometry>
        </mxCell>
        <mxCell id="NZRX_I5dMStPqbxFYzXw-26" value="" style="endArrow=none;html=1;rounded=0;" edge="1" parent="1">
          <mxGeometry width="50" height="50" relative="1" as="geometry">
            <mxPoint x="229.81" y="338" as="sourcePoint" />
            <mxPoint x="244.69" y="338" as="targetPoint" />
          </mxGeometry>
        </mxCell>
        <mxCell id="NZRX_I5dMStPqbxFYzXw-28" value="" style="endArrow=none;html=1;rounded=0;" edge="1" parent="1">
          <mxGeometry width="50" height="50" relative="1" as="geometry">
            <mxPoint x="227" y="276" as="sourcePoint" />
            <mxPoint x="250" y="276" as="targetPoint" />
          </mxGeometry>
        </mxCell>
        <mxCell id="NZRX_I5dMStPqbxFYzXw-29" value="" style="endArrow=none;html=1;rounded=0;" edge="1" parent="1">
          <mxGeometry width="50" height="50" relative="1" as="geometry">
            <mxPoint x="227" y="282" as="sourcePoint" />
            <mxPoint x="250" y="282" as="targetPoint" />
          </mxGeometry>
        </mxCell>
        <mxCell id="NZRX_I5dMStPqbxFYzXw-30" value="" style="endArrow=none;html=1;rounded=0;" edge="1" parent="1">
          <mxGeometry width="50" height="50" relative="1" as="geometry">
            <mxPoint x="480" y="276.16" as="sourcePoint" />
            <mxPoint x="480" y="238.16" as="targetPoint" />
          </mxGeometry>
        </mxCell>
        <mxCell id="NZRX_I5dMStPqbxFYzXw-31" value="" style="endArrow=none;html=1;rounded=0;" edge="1" parent="1">
          <mxGeometry width="50" height="50" relative="1" as="geometry">
            <mxPoint x="479.75" y="330.16" as="sourcePoint" />
            <mxPoint x="480" y="283.16" as="targetPoint" />
          </mxGeometry>
        </mxCell>
        <mxCell id="NZRX_I5dMStPqbxFYzXw-32" value="" style="endArrow=none;html=1;rounded=0;" edge="1" parent="1">
          <mxGeometry width="50" height="50" relative="1" as="geometry">
            <mxPoint x="466" y="330.16" as="sourcePoint" />
            <mxPoint x="492.5" y="330.16" as="targetPoint" />
          </mxGeometry>
        </mxCell>
        <mxCell id="NZRX_I5dMStPqbxFYzXw-33" value="" style="endArrow=none;html=1;rounded=0;" edge="1" parent="1">
          <mxGeometry width="50" height="50" relative="1" as="geometry">
            <mxPoint x="469.88" y="334.16" as="sourcePoint" />
            <mxPoint x="488.63" y="334.16" as="targetPoint" />
          </mxGeometry>
        </mxCell>
        <mxCell id="NZRX_I5dMStPqbxFYzXw-34" value="" style="endArrow=none;html=1;rounded=0;" edge="1" parent="1">
          <mxGeometry width="50" height="50" relative="1" as="geometry">
            <mxPoint x="471.81" y="338.16" as="sourcePoint" />
            <mxPoint x="486.69" y="338.16" as="targetPoint" />
          </mxGeometry>
        </mxCell>
        <mxCell id="NZRX_I5dMStPqbxFYzXw-35" value="" style="endArrow=none;html=1;rounded=0;" edge="1" parent="1">
          <mxGeometry width="50" height="50" relative="1" as="geometry">
            <mxPoint x="469" y="276.16" as="sourcePoint" />
            <mxPoint x="492" y="276.16" as="targetPoint" />
          </mxGeometry>
        </mxCell>
        <mxCell id="NZRX_I5dMStPqbxFYzXw-36" value="" style="endArrow=none;html=1;rounded=0;" edge="1" parent="1">
          <mxGeometry width="50" height="50" relative="1" as="geometry">
            <mxPoint x="469" y="282.16" as="sourcePoint" />
            <mxPoint x="492" y="282.16" as="targetPoint" />
          </mxGeometry>
        </mxCell>
        <mxCell id="NZRX_I5dMStPqbxFYzXw-37" value="" style="shape=partialRectangle;whiteSpace=wrap;html=1;bottom=0;right=0;fillColor=none;rotation=90;" vertex="1" parent="1">
          <mxGeometry x="317" y="99" width="23" height="116" as="geometry" />
        </mxCell>
        <mxCell id="NZRX_I5dMStPqbxFYzXw-38" value="" style="ellipse;whiteSpace=wrap;html=1;aspect=fixed;fillColor=#DBDBDB;" vertex="1" parent="1">
          <mxGeometry x="373" y="169" width="27" height="27" as="geometry" />
        </mxCell>
        <mxCell id="NZRX_I5dMStPqbxFYzXw-39" value="" style="shape=partialRectangle;whiteSpace=wrap;html=1;bottom=0;right=0;fillColor=none;rotation=-90;" vertex="1" parent="1">
          <mxGeometry x="404.5" y="178.5" width="23" height="59" as="geometry" />
        </mxCell>
        <mxCell id="NZRX_I5dMStPqbxFYzXw-40" value="" style="shape=partialRectangle;whiteSpace=wrap;html=1;bottom=0;right=0;fillColor=none;rotation=90;" vertex="1" parent="1">
          <mxGeometry x="404.5" y="128.5" width="23" height="57" as="geometry" />
        </mxCell>
        <mxCell id="NZRX_I5dMStPqbxFYzXw-41" value="" style="endArrow=none;html=1;rounded=0;" edge="1" parent="1">
          <mxGeometry width="50" height="50" relative="1" as="geometry">
            <mxPoint x="447" y="192" as="sourcePoint" />
            <mxPoint x="445" y="168" as="targetPoint" />
            <Array as="points">
              <mxPoint x="440" y="189" />
              <mxPoint x="447" y="184" />
              <mxPoint x="439" y="181" />
              <mxPoint x="446" y="176" />
              <mxPoint x="439" y="173" />
            </Array>
          </mxGeometry>
        </mxCell>
        <mxCell id="NZRX_I5dMStPqbxFYzXw-42" value="" style="endArrow=none;html=1;rounded=0;" edge="1" parent="1">
          <mxGeometry width="50" height="50" relative="1" as="geometry">
            <mxPoint x="445" y="219" as="sourcePoint" />
            <mxPoint x="445" y="192" as="targetPoint" />
          </mxGeometry>
        </mxCell>
        <mxCell id="NZRX_I5dMStPqbxFYzXw-43" value="" style="endArrow=none;html=1;rounded=0;" edge="1" parent="1">
          <mxGeometry width="50" height="50" relative="1" as="geometry">
            <mxPoint x="337" y="146" as="sourcePoint" />
            <mxPoint x="337" y="126" as="targetPoint" />
          </mxGeometry>
        </mxCell>
        <mxCell id="NZRX_I5dMStPqbxFYzXw-44" value="" style="endArrow=none;html=1;rounded=0;" edge="1" parent="1">
          <mxGeometry width="50" height="50" relative="1" as="geometry">
            <mxPoint x="324" y="126" as="sourcePoint" />
            <mxPoint x="350.5" y="126" as="targetPoint" />
          </mxGeometry>
        </mxCell>
        <mxCell id="NZRX_I5dMStPqbxFYzXw-45" value="" style="endArrow=none;html=1;rounded=0;" edge="1" parent="1">
          <mxGeometry width="50" height="50" relative="1" as="geometry">
            <mxPoint x="328" y="122" as="sourcePoint" />
            <mxPoint x="346.75" y="122" as="targetPoint" />
          </mxGeometry>
        </mxCell>
        <mxCell id="NZRX_I5dMStPqbxFYzXw-46" value="" style="endArrow=none;html=1;rounded=0;" edge="1" parent="1">
          <mxGeometry width="50" height="50" relative="1" as="geometry">
            <mxPoint x="330" y="118" as="sourcePoint" />
            <mxPoint x="344.88" y="118" as="targetPoint" />
          </mxGeometry>
        </mxCell>
        <mxCell id="NZRX_I5dMStPqbxFYzXw-57" value="" style="shape=partialRectangle;whiteSpace=wrap;html=1;bottom=0;right=0;fillColor=none;rotation=-90;" vertex="1" parent="1">
          <mxGeometry x="404" y="295" width="23" height="58" as="geometry" />
        </mxCell>
        <mxCell id="NZRX_I5dMStPqbxFYzXw-58" value="" style="ellipse;whiteSpace=wrap;html=1;aspect=fixed;fillColor=#DBDBDB;" vertex="1" parent="1">
          <mxGeometry x="373" y="285.5" width="27" height="27" as="geometry" />
        </mxCell>
        <mxCell id="NZRX_I5dMStPqbxFYzXw-60" value="" style="shape=partialRectangle;whiteSpace=wrap;html=1;bottom=0;right=0;fillColor=none;rotation=90;" vertex="1" parent="1">
          <mxGeometry x="404" y="244.5" width="23" height="58" as="geometry" />
        </mxCell>
        <mxCell id="NZRX_I5dMStPqbxFYzXw-61" value="" style="endArrow=none;html=1;rounded=0;" edge="1" parent="1">
          <mxGeometry width="50" height="50" relative="1" as="geometry">
            <mxPoint x="447" y="308.5" as="sourcePoint" />
            <mxPoint x="445" y="284.5" as="targetPoint" />
            <Array as="points">
              <mxPoint x="440" y="305.5" />
              <mxPoint x="447" y="300.5" />
              <mxPoint x="439" y="297.5" />
              <mxPoint x="446" y="292.5" />
              <mxPoint x="439" y="289.5" />
            </Array>
          </mxGeometry>
        </mxCell>
        <mxCell id="NZRX_I5dMStPqbxFYzXw-62" value="" style="endArrow=none;html=1;rounded=0;" edge="1" parent="1">
          <mxGeometry width="50" height="50" relative="1" as="geometry">
            <mxPoint x="445" y="335.5" as="sourcePoint" />
            <mxPoint x="445" y="308.5" as="targetPoint" />
          </mxGeometry>
        </mxCell>
        <mxCell id="NZRX_I5dMStPqbxFYzXw-68" value="" style="endArrow=none;html=1;rounded=0;exitX=0.525;exitY=0.004;exitDx=0;exitDy=0;exitPerimeter=0;" edge="1" parent="1">
          <mxGeometry width="50" height="50" relative="1" as="geometry">
            <mxPoint x="386.17499999999995" y="285.608" as="sourcePoint" />
            <mxPoint x="386" y="262" as="targetPoint" />
          </mxGeometry>
        </mxCell>
        <mxCell id="NZRX_I5dMStPqbxFYzXw-70" value="" style="shape=partialRectangle;whiteSpace=wrap;html=1;bottom=0;right=0;fillColor=none;rotation=-180;" vertex="1" parent="1">
          <mxGeometry x="274.5" y="316.5" width="112" height="19" as="geometry" />
        </mxCell>
        <mxCell id="NZRX_I5dMStPqbxFYzXw-71" value="" style="endArrow=none;html=1;rounded=0;" edge="1" parent="1">
          <mxGeometry width="50" height="50" relative="1" as="geometry">
            <mxPoint x="323" y="349" as="sourcePoint" />
            <mxPoint x="349.5" y="349" as="targetPoint" />
          </mxGeometry>
        </mxCell>
        <mxCell id="NZRX_I5dMStPqbxFYzXw-72" value="" style="endArrow=none;html=1;rounded=0;" edge="1" parent="1">
          <mxGeometry width="50" height="50" relative="1" as="geometry">
            <mxPoint x="326.88" y="353" as="sourcePoint" />
            <mxPoint x="345.63" y="353" as="targetPoint" />
          </mxGeometry>
        </mxCell>
        <mxCell id="NZRX_I5dMStPqbxFYzXw-73" value="" style="endArrow=none;html=1;rounded=0;" edge="1" parent="1">
          <mxGeometry width="50" height="50" relative="1" as="geometry">
            <mxPoint x="328.81" y="357" as="sourcePoint" />
            <mxPoint x="343.69" y="357" as="targetPoint" />
          </mxGeometry>
        </mxCell>
        <mxCell id="NZRX_I5dMStPqbxFYzXw-74" value="" style="endArrow=none;html=1;rounded=0;" edge="1" parent="1">
          <mxGeometry width="50" height="50" relative="1" as="geometry">
            <mxPoint x="336" y="349" as="sourcePoint" />
            <mxPoint x="336.25" y="335.5" as="targetPoint" />
          </mxGeometry>
        </mxCell>
        <mxCell id="NZRX_I5dMStPqbxFYzXw-76" value="" style="endArrow=none;html=1;rounded=0;exitX=0;exitY=0;exitDx=0;exitDy=0;" edge="1" parent="1">
          <mxGeometry width="50" height="50" relative="1" as="geometry">
            <mxPoint x="444.5000000000001" y="262" as="sourcePoint" />
            <mxPoint x="445" y="219" as="targetPoint" />
          </mxGeometry>
        </mxCell>
        <mxCell id="NZRX_I5dMStPqbxFYzXw-79" value="+" style="text;html=1;align=center;verticalAlign=middle;resizable=0;points=[];autosize=1;strokeColor=none;fillColor=none;" vertex="1" parent="1">
          <mxGeometry x="262.5" y="207" width="25" height="26" as="geometry" />
        </mxCell>
        <mxCell id="NZRX_I5dMStPqbxFYzXw-80" value="&lt;span style=&quot;font-size:12.0pt;&lt;br/&gt;mso-bidi-font-size:11.0pt;font-family:Symbol;mso-ascii-font-family:&amp;quot;Cambria Math&amp;quot;;&lt;br/&gt;mso-fareast-font-family:標楷體;mso-hansi-font-family:&amp;quot;Cambria Math&amp;quot;;mso-bidi-font-family:&lt;br/&gt;&amp;quot;Times New Roman&amp;quot;;mso-bidi-theme-font:minor-bidi;mso-ansi-language:EN-US;&lt;br/&gt;mso-fareast-language:ZH-TW;mso-bidi-language:AR-SA;mso-char-type:symbol;&lt;br/&gt;mso-symbol-font-family:Symbol&quot; lang=&quot;EN-US&quot;&gt;-&lt;/span&gt;" style="text;html=1;align=center;verticalAlign=middle;resizable=0;points=[];autosize=1;strokeColor=none;fillColor=none;" vertex="1" parent="1">
          <mxGeometry x="262.5" y="147.5" width="27" height="31" as="geometry" />
        </mxCell>
        <mxCell id="NZRX_I5dMStPqbxFYzXw-81" value="Vin" style="text;html=1;align=center;verticalAlign=middle;resizable=0;points=[];autosize=1;strokeColor=none;fillColor=none;" vertex="1" parent="1">
          <mxGeometry x="258.5" y="177.5" width="35" height="26" as="geometry" />
        </mxCell>
        <mxCell id="NZRX_I5dMStPqbxFYzXw-82" value="Vin" style="text;html=1;align=center;verticalAlign=middle;resizable=0;points=[];autosize=1;strokeColor=none;fillColor=none;" vertex="1" parent="1">
          <mxGeometry x="257.5" y="272" width="35" height="26" as="geometry" />
        </mxCell>
        <mxCell id="NZRX_I5dMStPqbxFYzXw-83" value="+" style="text;html=1;align=center;verticalAlign=middle;resizable=0;points=[];autosize=1;strokeColor=none;fillColor=none;" vertex="1" parent="1">
          <mxGeometry x="262.5" y="243" width="25" height="26" as="geometry" />
        </mxCell>
        <mxCell id="NZRX_I5dMStPqbxFYzXw-85" value="&lt;span style=&quot;font-size:12.0pt;&lt;br/&gt;mso-bidi-font-size:11.0pt;font-family:Symbol;mso-ascii-font-family:&amp;quot;Cambria Math&amp;quot;;&lt;br/&gt;mso-fareast-font-family:標楷體;mso-hansi-font-family:&amp;quot;Cambria Math&amp;quot;;mso-bidi-font-family:&lt;br/&gt;&amp;quot;Times New Roman&amp;quot;;mso-bidi-theme-font:minor-bidi;mso-ansi-language:EN-US;&lt;br/&gt;mso-fareast-language:ZH-TW;mso-bidi-language:AR-SA;mso-char-type:symbol;&lt;br/&gt;mso-symbol-font-family:Symbol&quot; lang=&quot;EN-US&quot;&gt;-&lt;/span&gt;" style="text;html=1;align=center;verticalAlign=middle;resizable=0;points=[];autosize=1;strokeColor=none;fillColor=none;" vertex="1" parent="1">
          <mxGeometry x="261.5" y="295" width="27" height="31" as="geometry" />
        </mxCell>
        <mxCell id="NZRX_I5dMStPqbxFYzXw-86" value="C1" style="text;html=1;align=center;verticalAlign=middle;resizable=0;points=[];autosize=1;strokeColor=none;fillColor=none;" vertex="1" parent="1">
          <mxGeometry x="233" y="280" width="33" height="26" as="geometry" />
        </mxCell>
        <mxCell id="NZRX_I5dMStPqbxFYzXw-87" value="C2" style="text;html=1;align=center;verticalAlign=middle;resizable=0;points=[];autosize=1;strokeColor=none;fillColor=none;" vertex="1" parent="1">
          <mxGeometry x="484" y="280" width="33" height="26" as="geometry" />
        </mxCell>
        <mxCell id="NZRX_I5dMStPqbxFYzXw-88" value="Rs" style="text;html=1;align=center;verticalAlign=middle;resizable=0;points=[];autosize=1;strokeColor=none;fillColor=none;" vertex="1" parent="1">
          <mxGeometry x="166" y="274" width="33" height="26" as="geometry" />
        </mxCell>
        <mxCell id="NZRX_I5dMStPqbxFYzXw-89" value="RF" style="text;html=1;align=center;verticalAlign=middle;resizable=0;points=[];autosize=1;strokeColor=none;fillColor=none;" vertex="1" parent="1">
          <mxGeometry x="313.5" y="207" width="34" height="26" as="geometry" />
        </mxCell>
        <mxCell id="NZRX_I5dMStPqbxFYzXw-90" value="" style="endArrow=classic;html=1;rounded=0;" edge="1" parent="1">
          <mxGeometry width="50" height="50" relative="1" as="geometry">
            <mxPoint x="135.42" y="299" as="sourcePoint" />
            <mxPoint x="135.42" y="278" as="targetPoint" />
          </mxGeometry>
        </mxCell>
        <mxCell id="NZRX_I5dMStPqbxFYzXw-91" value="Iin1" style="text;html=1;align=center;verticalAlign=middle;resizable=0;points=[];autosize=1;strokeColor=none;fillColor=none;" vertex="1" parent="1">
          <mxGeometry x="86" y="275.5" width="37" height="26" as="geometry" />
        </mxCell>
        <mxCell id="NZRX_I5dMStPqbxFYzXw-92" value="" style="endArrow=classic;html=1;rounded=0;" edge="1" parent="1">
          <mxGeometry width="50" height="50" relative="1" as="geometry">
            <mxPoint x="386.5" y="193" as="sourcePoint" />
            <mxPoint x="386.5" y="172" as="targetPoint" />
          </mxGeometry>
        </mxCell>
        <mxCell id="NZRX_I5dMStPqbxFYzXw-95" value="" style="endArrow=classic;html=1;rounded=0;" edge="1" parent="1">
          <mxGeometry width="50" height="50" relative="1" as="geometry">
            <mxPoint x="386" y="289.25" as="sourcePoint" />
            <mxPoint x="386.5" y="308.75" as="targetPoint" />
          </mxGeometry>
        </mxCell>
        <mxCell id="NZRX_I5dMStPqbxFYzXw-96" value="r&lt;font style=&quot;font-size: 6px;&quot;&gt;OP&lt;/font&gt;" style="text;html=1;align=center;verticalAlign=middle;resizable=0;points=[];autosize=1;strokeColor=none;fillColor=none;" vertex="1" parent="1">
          <mxGeometry x="441" y="166" width="31" height="26" as="geometry" />
        </mxCell>
        <mxCell id="NZRX_I5dMStPqbxFYzXw-97" value="r&lt;font style=&quot;font-size: 6px;&quot;&gt;ON&lt;/font&gt;" style="text;html=1;align=center;verticalAlign=middle;resizable=0;points=[];autosize=1;strokeColor=none;fillColor=none;" vertex="1" parent="1">
          <mxGeometry x="441" y="282" width="31" height="26" as="geometry" />
        </mxCell>
        <mxCell id="NZRX_I5dMStPqbxFYzXw-98" value="gm&lt;font style=&quot;font-size: 8px;&quot;&gt;p*&lt;/font&gt;&lt;font style=&quot;font-size: 12px;&quot;&gt;V&lt;/font&gt;&lt;font style=&quot;font-size: 8px;&quot;&gt;in&lt;/font&gt;" style="text;html=1;align=center;verticalAlign=middle;resizable=0;points=[];autosize=1;strokeColor=none;fillColor=none;" vertex="1" parent="1">
          <mxGeometry x="322" y="166" width="56" height="26" as="geometry" />
        </mxCell>
        <mxCell id="NZRX_I5dMStPqbxFYzXw-99" value="gm&lt;font style=&quot;font-size: 8px;&quot;&gt;N&lt;/font&gt;&lt;font style=&quot;font-size: 8px;&quot;&gt;*&lt;/font&gt;&lt;font style=&quot;font-size: 12px;&quot;&gt;V&lt;/font&gt;&lt;font style=&quot;font-size: 8px;&quot;&gt;in&lt;/font&gt;" style="text;html=1;align=center;verticalAlign=middle;resizable=0;points=[];autosize=1;strokeColor=none;fillColor=none;" vertex="1" parent="1">
          <mxGeometry x="319" y="282" width="58" height="26" as="geometry" />
        </mxCell>
        <mxCell id="NZRX_I5dMStPqbxFYzXw-100" value="Vo" style="text;html=1;align=center;verticalAlign=middle;resizable=0;points=[];autosize=1;strokeColor=none;fillColor=none;" vertex="1" parent="1">
          <mxGeometry x="495" y="223" width="32" height="26" as="geometry" />
        </mxCell>
        <mxCell id="NZRX_I5dMStPqbxFYzXw-101" value="" style="endArrow=classic;html=1;rounded=0;strokeColor=#FF3333;" edge="1" parent="1">
          <mxGeometry width="50" height="50" relative="1" as="geometry">
            <mxPoint x="445" y="238" as="sourcePoint" />
            <mxPoint x="445" y="218.5" as="targetPoint" />
          </mxGeometry>
        </mxCell>
        <mxCell id="NZRX_I5dMStPqbxFYzXw-102" value="" style="endArrow=classic;html=1;rounded=0;strokeColor=#FF3333;" edge="1" parent="1">
          <mxGeometry width="50" height="50" relative="1" as="geometry">
            <mxPoint x="445.5" y="238" as="sourcePoint" />
            <mxPoint x="465.5" y="238" as="targetPoint" />
          </mxGeometry>
        </mxCell>
        <mxCell id="NZRX_I5dMStPqbxFYzXw-103" value="" style="endArrow=classic;html=1;rounded=0;strokeColor=#FF3333;" edge="1" parent="1">
          <mxGeometry width="50" height="50" relative="1" as="geometry">
            <mxPoint x="445" y="238" as="sourcePoint" />
            <mxPoint x="424" y="238" as="targetPoint" />
          </mxGeometry>
        </mxCell>
        <mxCell id="NZRX_I5dMStPqbxFYzXw-104" value="" style="endArrow=classic;html=1;rounded=0;fillColor=#FFD966;strokeColor=#FF3333;" edge="1" parent="1">
          <mxGeometry width="50" height="50" relative="1" as="geometry">
            <mxPoint x="445" y="238" as="sourcePoint" />
            <mxPoint x="445" y="257" as="targetPoint" />
          </mxGeometry>
        </mxCell>
        <mxCell id="NZRX_I5dMStPqbxFYzXw-106" value="" style="endArrow=classic;html=1;rounded=0;strokeColor=#FF3333;" edge="1" parent="1">
          <mxGeometry width="50" height="50" relative="1" as="geometry">
            <mxPoint x="173" y="238" as="sourcePoint" />
            <mxPoint x="201" y="238" as="targetPoint" />
          </mxGeometry>
        </mxCell>
        <mxCell id="NZRX_I5dMStPqbxFYzXw-107" value="" style="endArrow=classic;html=1;rounded=0;strokeColor=#FF3333;" edge="1" parent="1">
          <mxGeometry width="50" height="50" relative="1" as="geometry">
            <mxPoint x="201" y="238" as="sourcePoint" />
            <mxPoint x="201" y="256" as="targetPoint" />
          </mxGeometry>
        </mxCell>
        <mxCell id="NZRX_I5dMStPqbxFYzXw-108" value="" style="endArrow=classic;html=1;rounded=0;strokeColor=#FF3333;" edge="1" parent="1">
          <mxGeometry width="50" height="50" relative="1" as="geometry">
            <mxPoint x="238" y="238" as="sourcePoint" />
            <mxPoint x="238" y="256" as="targetPoint" />
          </mxGeometry>
        </mxCell>
        <mxCell id="NZRX_I5dMStPqbxFYzXw-109" value="" style="endArrow=classic;html=1;rounded=0;strokeColor=#FF3333;" edge="1" parent="1">
          <mxGeometry width="50" height="50" relative="1" as="geometry">
            <mxPoint x="263.5" y="238" as="sourcePoint" />
            <mxPoint x="237.5" y="238" as="targetPoint" />
          </mxGeometry>
        </mxCell>
        <mxCell id="NZRX_I5dMStPqbxFYzXw-110" value="" style="shape=partialRectangle;whiteSpace=wrap;html=1;bottom=0;right=0;fillColor=none;" vertex="1" parent="1">
          <mxGeometry x="147" y="584" width="139" height="36" as="geometry" />
        </mxCell>
        <mxCell id="NZRX_I5dMStPqbxFYzXw-111" value="" style="ellipse;whiteSpace=wrap;html=1;aspect=fixed;fillColor=#DBDBDB;" vertex="1" parent="1">
          <mxGeometry x="132" y="620" width="29" height="29" as="geometry" />
        </mxCell>
        <mxCell id="NZRX_I5dMStPqbxFYzXw-112" value="" style="endArrow=none;html=1;rounded=0;" edge="1" parent="1">
          <mxGeometry width="50" height="50" relative="1" as="geometry">
            <mxPoint x="147" y="676" as="sourcePoint" />
            <mxPoint x="147" y="649" as="targetPoint" />
          </mxGeometry>
        </mxCell>
        <mxCell id="NZRX_I5dMStPqbxFYzXw-113" value="" style="endArrow=none;html=1;rounded=0;" edge="1" parent="1">
          <mxGeometry width="50" height="50" relative="1" as="geometry">
            <mxPoint x="133.25" y="676" as="sourcePoint" />
            <mxPoint x="159.75" y="676" as="targetPoint" />
          </mxGeometry>
        </mxCell>
        <mxCell id="NZRX_I5dMStPqbxFYzXw-114" value="" style="endArrow=none;html=1;rounded=0;" edge="1" parent="1">
          <mxGeometry width="50" height="50" relative="1" as="geometry">
            <mxPoint x="137.13" y="680" as="sourcePoint" />
            <mxPoint x="155.88" y="680" as="targetPoint" />
          </mxGeometry>
        </mxCell>
        <mxCell id="NZRX_I5dMStPqbxFYzXw-115" value="" style="endArrow=none;html=1;rounded=0;" edge="1" parent="1">
          <mxGeometry width="50" height="50" relative="1" as="geometry">
            <mxPoint x="139.06" y="684" as="sourcePoint" />
            <mxPoint x="153.94" y="684" as="targetPoint" />
          </mxGeometry>
        </mxCell>
        <mxCell id="NZRX_I5dMStPqbxFYzXw-116" value="" style="endArrow=none;html=1;rounded=0;" edge="1" parent="1">
          <mxGeometry width="50" height="50" relative="1" as="geometry">
            <mxPoint x="212" y="622" as="sourcePoint" />
            <mxPoint x="212" y="584" as="targetPoint" />
          </mxGeometry>
        </mxCell>
        <mxCell id="NZRX_I5dMStPqbxFYzXw-117" value="" style="endArrow=none;html=1;rounded=0;" edge="1" parent="1">
          <mxGeometry width="50" height="50" relative="1" as="geometry">
            <mxPoint x="215" y="645" as="sourcePoint" />
            <mxPoint x="213" y="621" as="targetPoint" />
            <Array as="points">
              <mxPoint x="208" y="642" />
              <mxPoint x="215" y="637" />
              <mxPoint x="207" y="634" />
              <mxPoint x="214" y="629" />
              <mxPoint x="207" y="626" />
            </Array>
          </mxGeometry>
        </mxCell>
        <mxCell id="NZRX_I5dMStPqbxFYzXw-118" value="" style="endArrow=none;html=1;rounded=0;" edge="1" parent="1">
          <mxGeometry width="50" height="50" relative="1" as="geometry">
            <mxPoint x="213.75" y="676" as="sourcePoint" />
            <mxPoint x="214" y="645" as="targetPoint" />
          </mxGeometry>
        </mxCell>
        <mxCell id="NZRX_I5dMStPqbxFYzXw-119" value="" style="endArrow=none;html=1;rounded=0;" edge="1" parent="1">
          <mxGeometry width="50" height="50" relative="1" as="geometry">
            <mxPoint x="200" y="676" as="sourcePoint" />
            <mxPoint x="226.5" y="676" as="targetPoint" />
          </mxGeometry>
        </mxCell>
        <mxCell id="NZRX_I5dMStPqbxFYzXw-120" value="" style="endArrow=none;html=1;rounded=0;" edge="1" parent="1">
          <mxGeometry width="50" height="50" relative="1" as="geometry">
            <mxPoint x="203.88" y="680" as="sourcePoint" />
            <mxPoint x="222.63" y="680" as="targetPoint" />
          </mxGeometry>
        </mxCell>
        <mxCell id="NZRX_I5dMStPqbxFYzXw-121" value="" style="endArrow=none;html=1;rounded=0;" edge="1" parent="1">
          <mxGeometry width="50" height="50" relative="1" as="geometry">
            <mxPoint x="205.81" y="684" as="sourcePoint" />
            <mxPoint x="220.69" y="684" as="targetPoint" />
          </mxGeometry>
        </mxCell>
        <mxCell id="NZRX_I5dMStPqbxFYzXw-123" value="" style="endArrow=none;html=1;rounded=0;" edge="1" parent="1">
          <mxGeometry width="50" height="50" relative="1" as="geometry">
            <mxPoint x="455" y="584" as="sourcePoint" />
            <mxPoint x="512" y="584" as="targetPoint" />
          </mxGeometry>
        </mxCell>
        <mxCell id="NZRX_I5dMStPqbxFYzXw-124" value="" style="endArrow=none;html=1;rounded=0;" edge="1" parent="1">
          <mxGeometry width="50" height="50" relative="1" as="geometry">
            <mxPoint x="249" y="622" as="sourcePoint" />
            <mxPoint x="249" y="584" as="targetPoint" />
          </mxGeometry>
        </mxCell>
        <mxCell id="NZRX_I5dMStPqbxFYzXw-125" value="" style="endArrow=none;html=1;rounded=0;" edge="1" parent="1">
          <mxGeometry width="50" height="50" relative="1" as="geometry">
            <mxPoint x="248.75" y="676" as="sourcePoint" />
            <mxPoint x="249" y="629" as="targetPoint" />
          </mxGeometry>
        </mxCell>
        <mxCell id="NZRX_I5dMStPqbxFYzXw-126" value="" style="endArrow=none;html=1;rounded=0;" edge="1" parent="1">
          <mxGeometry width="50" height="50" relative="1" as="geometry">
            <mxPoint x="235" y="676" as="sourcePoint" />
            <mxPoint x="261.5" y="676" as="targetPoint" />
          </mxGeometry>
        </mxCell>
        <mxCell id="NZRX_I5dMStPqbxFYzXw-127" value="" style="endArrow=none;html=1;rounded=0;" edge="1" parent="1">
          <mxGeometry width="50" height="50" relative="1" as="geometry">
            <mxPoint x="238.88" y="680" as="sourcePoint" />
            <mxPoint x="257.63" y="680" as="targetPoint" />
          </mxGeometry>
        </mxCell>
        <mxCell id="NZRX_I5dMStPqbxFYzXw-128" value="" style="endArrow=none;html=1;rounded=0;" edge="1" parent="1">
          <mxGeometry width="50" height="50" relative="1" as="geometry">
            <mxPoint x="240.81" y="684" as="sourcePoint" />
            <mxPoint x="255.69" y="684" as="targetPoint" />
          </mxGeometry>
        </mxCell>
        <mxCell id="NZRX_I5dMStPqbxFYzXw-129" value="" style="endArrow=none;html=1;rounded=0;" edge="1" parent="1">
          <mxGeometry width="50" height="50" relative="1" as="geometry">
            <mxPoint x="238" y="622" as="sourcePoint" />
            <mxPoint x="261" y="622" as="targetPoint" />
          </mxGeometry>
        </mxCell>
        <mxCell id="NZRX_I5dMStPqbxFYzXw-130" value="" style="endArrow=none;html=1;rounded=0;" edge="1" parent="1">
          <mxGeometry width="50" height="50" relative="1" as="geometry">
            <mxPoint x="238" y="628" as="sourcePoint" />
            <mxPoint x="261" y="628" as="targetPoint" />
          </mxGeometry>
        </mxCell>
        <mxCell id="NZRX_I5dMStPqbxFYzXw-131" value="" style="endArrow=none;html=1;rounded=0;" edge="1" parent="1">
          <mxGeometry width="50" height="50" relative="1" as="geometry">
            <mxPoint x="491" y="622.1600000000001" as="sourcePoint" />
            <mxPoint x="491" y="584.16" as="targetPoint" />
          </mxGeometry>
        </mxCell>
        <mxCell id="NZRX_I5dMStPqbxFYzXw-132" value="" style="endArrow=none;html=1;rounded=0;" edge="1" parent="1">
          <mxGeometry width="50" height="50" relative="1" as="geometry">
            <mxPoint x="490.75" y="676.1600000000001" as="sourcePoint" />
            <mxPoint x="491" y="629.1600000000001" as="targetPoint" />
          </mxGeometry>
        </mxCell>
        <mxCell id="NZRX_I5dMStPqbxFYzXw-133" value="" style="endArrow=none;html=1;rounded=0;" edge="1" parent="1">
          <mxGeometry width="50" height="50" relative="1" as="geometry">
            <mxPoint x="477" y="676.1600000000001" as="sourcePoint" />
            <mxPoint x="503.5" y="676.1600000000001" as="targetPoint" />
          </mxGeometry>
        </mxCell>
        <mxCell id="NZRX_I5dMStPqbxFYzXw-134" value="" style="endArrow=none;html=1;rounded=0;" edge="1" parent="1">
          <mxGeometry width="50" height="50" relative="1" as="geometry">
            <mxPoint x="480.88" y="680.1600000000001" as="sourcePoint" />
            <mxPoint x="499.63" y="680.1600000000001" as="targetPoint" />
          </mxGeometry>
        </mxCell>
        <mxCell id="NZRX_I5dMStPqbxFYzXw-135" value="" style="endArrow=none;html=1;rounded=0;" edge="1" parent="1">
          <mxGeometry width="50" height="50" relative="1" as="geometry">
            <mxPoint x="482.81" y="684.1600000000001" as="sourcePoint" />
            <mxPoint x="497.69" y="684.1600000000001" as="targetPoint" />
          </mxGeometry>
        </mxCell>
        <mxCell id="NZRX_I5dMStPqbxFYzXw-136" value="" style="endArrow=none;html=1;rounded=0;" edge="1" parent="1">
          <mxGeometry width="50" height="50" relative="1" as="geometry">
            <mxPoint x="480" y="622.1600000000001" as="sourcePoint" />
            <mxPoint x="503" y="622.1600000000001" as="targetPoint" />
          </mxGeometry>
        </mxCell>
        <mxCell id="NZRX_I5dMStPqbxFYzXw-137" value="" style="endArrow=none;html=1;rounded=0;" edge="1" parent="1">
          <mxGeometry width="50" height="50" relative="1" as="geometry">
            <mxPoint x="480" y="628.1600000000001" as="sourcePoint" />
            <mxPoint x="503" y="628.1600000000001" as="targetPoint" />
          </mxGeometry>
        </mxCell>
        <mxCell id="NZRX_I5dMStPqbxFYzXw-138" value="" style="shape=partialRectangle;whiteSpace=wrap;html=1;bottom=0;right=0;fillColor=none;rotation=90;" vertex="1" parent="1">
          <mxGeometry x="328" y="445" width="23" height="116" as="geometry" />
        </mxCell>
        <mxCell id="NZRX_I5dMStPqbxFYzXw-139" value="" style="ellipse;whiteSpace=wrap;html=1;aspect=fixed;fillColor=#DBDBDB;" vertex="1" parent="1">
          <mxGeometry x="384" y="515" width="27" height="27" as="geometry" />
        </mxCell>
        <mxCell id="NZRX_I5dMStPqbxFYzXw-140" value="" style="shape=partialRectangle;whiteSpace=wrap;html=1;bottom=0;right=0;fillColor=none;rotation=-90;" vertex="1" parent="1">
          <mxGeometry x="415.5" y="524.5" width="23" height="59" as="geometry" />
        </mxCell>
        <mxCell id="NZRX_I5dMStPqbxFYzXw-141" value="" style="shape=partialRectangle;whiteSpace=wrap;html=1;bottom=0;right=0;fillColor=none;rotation=90;" vertex="1" parent="1">
          <mxGeometry x="415.5" y="474.5" width="23" height="57" as="geometry" />
        </mxCell>
        <mxCell id="NZRX_I5dMStPqbxFYzXw-142" value="" style="endArrow=none;html=1;rounded=0;" edge="1" parent="1">
          <mxGeometry width="50" height="50" relative="1" as="geometry">
            <mxPoint x="458" y="538" as="sourcePoint" />
            <mxPoint x="456" y="514" as="targetPoint" />
            <Array as="points">
              <mxPoint x="451" y="535" />
              <mxPoint x="458" y="530" />
              <mxPoint x="450" y="527" />
              <mxPoint x="457" y="522" />
              <mxPoint x="450" y="519" />
            </Array>
          </mxGeometry>
        </mxCell>
        <mxCell id="NZRX_I5dMStPqbxFYzXw-143" value="" style="endArrow=none;html=1;rounded=0;" edge="1" parent="1">
          <mxGeometry width="50" height="50" relative="1" as="geometry">
            <mxPoint x="456" y="565" as="sourcePoint" />
            <mxPoint x="456" y="538" as="targetPoint" />
          </mxGeometry>
        </mxCell>
        <mxCell id="NZRX_I5dMStPqbxFYzXw-144" value="" style="endArrow=none;html=1;rounded=0;" edge="1" parent="1">
          <mxGeometry width="50" height="50" relative="1" as="geometry">
            <mxPoint x="348" y="492" as="sourcePoint" />
            <mxPoint x="348" y="472" as="targetPoint" />
          </mxGeometry>
        </mxCell>
        <mxCell id="NZRX_I5dMStPqbxFYzXw-145" value="" style="endArrow=none;html=1;rounded=0;" edge="1" parent="1">
          <mxGeometry width="50" height="50" relative="1" as="geometry">
            <mxPoint x="335" y="472" as="sourcePoint" />
            <mxPoint x="361.5" y="472" as="targetPoint" />
          </mxGeometry>
        </mxCell>
        <mxCell id="NZRX_I5dMStPqbxFYzXw-146" value="" style="endArrow=none;html=1;rounded=0;" edge="1" parent="1">
          <mxGeometry width="50" height="50" relative="1" as="geometry">
            <mxPoint x="339" y="468" as="sourcePoint" />
            <mxPoint x="357.75" y="468" as="targetPoint" />
          </mxGeometry>
        </mxCell>
        <mxCell id="NZRX_I5dMStPqbxFYzXw-147" value="" style="endArrow=none;html=1;rounded=0;" edge="1" parent="1">
          <mxGeometry width="50" height="50" relative="1" as="geometry">
            <mxPoint x="341" y="464" as="sourcePoint" />
            <mxPoint x="355.88" y="464" as="targetPoint" />
          </mxGeometry>
        </mxCell>
        <mxCell id="NZRX_I5dMStPqbxFYzXw-148" value="" style="shape=partialRectangle;whiteSpace=wrap;html=1;bottom=0;right=0;fillColor=none;rotation=-90;" vertex="1" parent="1">
          <mxGeometry x="415" y="641" width="23" height="58" as="geometry" />
        </mxCell>
        <mxCell id="NZRX_I5dMStPqbxFYzXw-149" value="" style="ellipse;whiteSpace=wrap;html=1;aspect=fixed;fillColor=#DBDBDB;" vertex="1" parent="1">
          <mxGeometry x="384" y="631.5" width="27" height="27" as="geometry" />
        </mxCell>
        <mxCell id="NZRX_I5dMStPqbxFYzXw-150" value="" style="shape=partialRectangle;whiteSpace=wrap;html=1;bottom=0;right=0;fillColor=none;rotation=90;" vertex="1" parent="1">
          <mxGeometry x="415" y="590.5" width="23" height="58" as="geometry" />
        </mxCell>
        <mxCell id="NZRX_I5dMStPqbxFYzXw-151" value="" style="endArrow=none;html=1;rounded=0;" edge="1" parent="1">
          <mxGeometry width="50" height="50" relative="1" as="geometry">
            <mxPoint x="458" y="654.5" as="sourcePoint" />
            <mxPoint x="456" y="630.5" as="targetPoint" />
            <Array as="points">
              <mxPoint x="451" y="651.5" />
              <mxPoint x="458" y="646.5" />
              <mxPoint x="450" y="643.5" />
              <mxPoint x="457" y="638.5" />
              <mxPoint x="450" y="635.5" />
            </Array>
          </mxGeometry>
        </mxCell>
        <mxCell id="NZRX_I5dMStPqbxFYzXw-152" value="" style="endArrow=none;html=1;rounded=0;" edge="1" parent="1">
          <mxGeometry width="50" height="50" relative="1" as="geometry">
            <mxPoint x="456" y="681.5" as="sourcePoint" />
            <mxPoint x="456" y="654.5" as="targetPoint" />
          </mxGeometry>
        </mxCell>
        <mxCell id="NZRX_I5dMStPqbxFYzXw-153" value="" style="endArrow=none;html=1;rounded=0;exitX=0.525;exitY=0.004;exitDx=0;exitDy=0;exitPerimeter=0;" edge="1" parent="1">
          <mxGeometry width="50" height="50" relative="1" as="geometry">
            <mxPoint x="397.17499999999995" y="631.608" as="sourcePoint" />
            <mxPoint x="397" y="608" as="targetPoint" />
          </mxGeometry>
        </mxCell>
        <mxCell id="NZRX_I5dMStPqbxFYzXw-154" value="" style="shape=partialRectangle;whiteSpace=wrap;html=1;bottom=0;right=0;fillColor=none;rotation=-180;" vertex="1" parent="1">
          <mxGeometry x="285.5" y="662.5" width="112" height="19" as="geometry" />
        </mxCell>
        <mxCell id="NZRX_I5dMStPqbxFYzXw-155" value="" style="endArrow=none;html=1;rounded=0;" edge="1" parent="1">
          <mxGeometry width="50" height="50" relative="1" as="geometry">
            <mxPoint x="334" y="695" as="sourcePoint" />
            <mxPoint x="360.5" y="695" as="targetPoint" />
          </mxGeometry>
        </mxCell>
        <mxCell id="NZRX_I5dMStPqbxFYzXw-156" value="" style="endArrow=none;html=1;rounded=0;" edge="1" parent="1">
          <mxGeometry width="50" height="50" relative="1" as="geometry">
            <mxPoint x="337.88" y="699" as="sourcePoint" />
            <mxPoint x="356.63" y="699" as="targetPoint" />
          </mxGeometry>
        </mxCell>
        <mxCell id="NZRX_I5dMStPqbxFYzXw-157" value="" style="endArrow=none;html=1;rounded=0;" edge="1" parent="1">
          <mxGeometry width="50" height="50" relative="1" as="geometry">
            <mxPoint x="339.81" y="703" as="sourcePoint" />
            <mxPoint x="354.69" y="703" as="targetPoint" />
          </mxGeometry>
        </mxCell>
        <mxCell id="NZRX_I5dMStPqbxFYzXw-158" value="" style="endArrow=none;html=1;rounded=0;" edge="1" parent="1">
          <mxGeometry width="50" height="50" relative="1" as="geometry">
            <mxPoint x="347" y="695" as="sourcePoint" />
            <mxPoint x="347.25" y="681.5" as="targetPoint" />
          </mxGeometry>
        </mxCell>
        <mxCell id="NZRX_I5dMStPqbxFYzXw-159" value="" style="endArrow=none;html=1;rounded=0;exitX=0;exitY=0;exitDx=0;exitDy=0;" edge="1" parent="1">
          <mxGeometry width="50" height="50" relative="1" as="geometry">
            <mxPoint x="455.5000000000001" y="608" as="sourcePoint" />
            <mxPoint x="456" y="565" as="targetPoint" />
          </mxGeometry>
        </mxCell>
        <mxCell id="NZRX_I5dMStPqbxFYzXw-160" value="+" style="text;html=1;align=center;verticalAlign=middle;resizable=0;points=[];autosize=1;strokeColor=none;fillColor=none;" vertex="1" parent="1">
          <mxGeometry x="273.5" y="553" width="25" height="26" as="geometry" />
        </mxCell>
        <mxCell id="NZRX_I5dMStPqbxFYzXw-161" value="&lt;span style=&quot;font-size:12.0pt;&lt;br/&gt;mso-bidi-font-size:11.0pt;font-family:Symbol;mso-ascii-font-family:&amp;quot;Cambria Math&amp;quot;;&lt;br/&gt;mso-fareast-font-family:標楷體;mso-hansi-font-family:&amp;quot;Cambria Math&amp;quot;;mso-bidi-font-family:&lt;br/&gt;&amp;quot;Times New Roman&amp;quot;;mso-bidi-theme-font:minor-bidi;mso-ansi-language:EN-US;&lt;br/&gt;mso-fareast-language:ZH-TW;mso-bidi-language:AR-SA;mso-char-type:symbol;&lt;br/&gt;mso-symbol-font-family:Symbol&quot; lang=&quot;EN-US&quot;&gt;-&lt;/span&gt;" style="text;html=1;align=center;verticalAlign=middle;resizable=0;points=[];autosize=1;strokeColor=none;fillColor=none;" vertex="1" parent="1">
          <mxGeometry x="273.5" y="493.5" width="27" height="31" as="geometry" />
        </mxCell>
        <mxCell id="NZRX_I5dMStPqbxFYzXw-162" value="Vin" style="text;html=1;align=center;verticalAlign=middle;resizable=0;points=[];autosize=1;strokeColor=none;fillColor=none;" vertex="1" parent="1">
          <mxGeometry x="269.5" y="523.5" width="35" height="26" as="geometry" />
        </mxCell>
        <mxCell id="NZRX_I5dMStPqbxFYzXw-163" value="Vin" style="text;html=1;align=center;verticalAlign=middle;resizable=0;points=[];autosize=1;strokeColor=none;fillColor=none;" vertex="1" parent="1">
          <mxGeometry x="268.5" y="618" width="35" height="26" as="geometry" />
        </mxCell>
        <mxCell id="NZRX_I5dMStPqbxFYzXw-164" value="+" style="text;html=1;align=center;verticalAlign=middle;resizable=0;points=[];autosize=1;strokeColor=none;fillColor=none;" vertex="1" parent="1">
          <mxGeometry x="273.5" y="589" width="25" height="26" as="geometry" />
        </mxCell>
        <mxCell id="NZRX_I5dMStPqbxFYzXw-165" value="&lt;span style=&quot;font-size:12.0pt;&lt;br/&gt;mso-bidi-font-size:11.0pt;font-family:Symbol;mso-ascii-font-family:&amp;quot;Cambria Math&amp;quot;;&lt;br/&gt;mso-fareast-font-family:標楷體;mso-hansi-font-family:&amp;quot;Cambria Math&amp;quot;;mso-bidi-font-family:&lt;br/&gt;&amp;quot;Times New Roman&amp;quot;;mso-bidi-theme-font:minor-bidi;mso-ansi-language:EN-US;&lt;br/&gt;mso-fareast-language:ZH-TW;mso-bidi-language:AR-SA;mso-char-type:symbol;&lt;br/&gt;mso-symbol-font-family:Symbol&quot; lang=&quot;EN-US&quot;&gt;-&lt;/span&gt;" style="text;html=1;align=center;verticalAlign=middle;resizable=0;points=[];autosize=1;strokeColor=none;fillColor=none;" vertex="1" parent="1">
          <mxGeometry x="272.5" y="641" width="27" height="31" as="geometry" />
        </mxCell>
        <mxCell id="NZRX_I5dMStPqbxFYzXw-166" value="C1" style="text;html=1;align=center;verticalAlign=middle;resizable=0;points=[];autosize=1;strokeColor=none;fillColor=none;" vertex="1" parent="1">
          <mxGeometry x="244" y="626" width="33" height="26" as="geometry" />
        </mxCell>
        <mxCell id="NZRX_I5dMStPqbxFYzXw-167" value="C2" style="text;html=1;align=center;verticalAlign=middle;resizable=0;points=[];autosize=1;strokeColor=none;fillColor=none;" vertex="1" parent="1">
          <mxGeometry x="495" y="626" width="33" height="26" as="geometry" />
        </mxCell>
        <mxCell id="NZRX_I5dMStPqbxFYzXw-168" value="Rs" style="text;html=1;align=center;verticalAlign=middle;resizable=0;points=[];autosize=1;strokeColor=none;fillColor=none;" vertex="1" parent="1">
          <mxGeometry x="177" y="620" width="33" height="26" as="geometry" />
        </mxCell>
        <mxCell id="NZRX_I5dMStPqbxFYzXw-170" value="" style="endArrow=classic;html=1;rounded=0;" edge="1" parent="1">
          <mxGeometry width="50" height="50" relative="1" as="geometry">
            <mxPoint x="146.42" y="645" as="sourcePoint" />
            <mxPoint x="146.42" y="624" as="targetPoint" />
          </mxGeometry>
        </mxCell>
        <mxCell id="NZRX_I5dMStPqbxFYzXw-171" value="Iin1" style="text;html=1;align=center;verticalAlign=middle;resizable=0;points=[];autosize=1;strokeColor=none;fillColor=none;" vertex="1" parent="1">
          <mxGeometry x="97" y="621.5" width="37" height="26" as="geometry" />
        </mxCell>
        <mxCell id="NZRX_I5dMStPqbxFYzXw-172" value="" style="endArrow=classic;html=1;rounded=0;" edge="1" parent="1">
          <mxGeometry width="50" height="50" relative="1" as="geometry">
            <mxPoint x="397.5" y="539" as="sourcePoint" />
            <mxPoint x="397.5" y="518" as="targetPoint" />
          </mxGeometry>
        </mxCell>
        <mxCell id="NZRX_I5dMStPqbxFYzXw-173" value="" style="endArrow=classic;html=1;rounded=0;" edge="1" parent="1">
          <mxGeometry width="50" height="50" relative="1" as="geometry">
            <mxPoint x="397" y="635.25" as="sourcePoint" />
            <mxPoint x="397.5" y="654.75" as="targetPoint" />
          </mxGeometry>
        </mxCell>
        <mxCell id="NZRX_I5dMStPqbxFYzXw-174" value="r&lt;font style=&quot;font-size: 6px;&quot;&gt;OP&lt;/font&gt;" style="text;html=1;align=center;verticalAlign=middle;resizable=0;points=[];autosize=1;strokeColor=none;fillColor=none;" vertex="1" parent="1">
          <mxGeometry x="452" y="512" width="31" height="26" as="geometry" />
        </mxCell>
        <mxCell id="NZRX_I5dMStPqbxFYzXw-175" value="r&lt;font style=&quot;font-size: 6px;&quot;&gt;ON&lt;/font&gt;" style="text;html=1;align=center;verticalAlign=middle;resizable=0;points=[];autosize=1;strokeColor=none;fillColor=none;" vertex="1" parent="1">
          <mxGeometry x="452" y="628" width="31" height="26" as="geometry" />
        </mxCell>
        <mxCell id="NZRX_I5dMStPqbxFYzXw-176" value="gm&lt;font style=&quot;font-size: 8px;&quot;&gt;p*&lt;/font&gt;&lt;font style=&quot;font-size: 12px;&quot;&gt;V&lt;/font&gt;&lt;font style=&quot;font-size: 8px;&quot;&gt;in&lt;/font&gt;" style="text;html=1;align=center;verticalAlign=middle;resizable=0;points=[];autosize=1;strokeColor=none;fillColor=none;" vertex="1" parent="1">
          <mxGeometry x="333" y="512" width="56" height="26" as="geometry" />
        </mxCell>
        <mxCell id="NZRX_I5dMStPqbxFYzXw-177" value="gm&lt;font style=&quot;font-size: 8px;&quot;&gt;N&lt;/font&gt;&lt;font style=&quot;font-size: 8px;&quot;&gt;*&lt;/font&gt;&lt;font style=&quot;font-size: 12px;&quot;&gt;V&lt;/font&gt;&lt;font style=&quot;font-size: 8px;&quot;&gt;in&lt;/font&gt;" style="text;html=1;align=center;verticalAlign=middle;resizable=0;points=[];autosize=1;strokeColor=none;fillColor=none;" vertex="1" parent="1">
          <mxGeometry x="330" y="628" width="58" height="26" as="geometry" />
        </mxCell>
        <mxCell id="NZRX_I5dMStPqbxFYzXw-178" value="Vo" style="text;html=1;align=center;verticalAlign=middle;resizable=0;points=[];autosize=1;strokeColor=none;fillColor=none;" vertex="1" parent="1">
          <mxGeometry x="506" y="569" width="32" height="26" as="geometry" />
        </mxCell>
        <mxCell id="NZRX_I5dMStPqbxFYzXw-179" value="" style="endArrow=classic;html=1;rounded=0;strokeColor=#FF3333;" edge="1" parent="1">
          <mxGeometry width="50" height="50" relative="1" as="geometry">
            <mxPoint x="456" y="584" as="sourcePoint" />
            <mxPoint x="456" y="564.5" as="targetPoint" />
          </mxGeometry>
        </mxCell>
        <mxCell id="NZRX_I5dMStPqbxFYzXw-180" value="" style="endArrow=classic;html=1;rounded=0;strokeColor=#FF3333;" edge="1" parent="1">
          <mxGeometry width="50" height="50" relative="1" as="geometry">
            <mxPoint x="456.5" y="584" as="sourcePoint" />
            <mxPoint x="476.5" y="584" as="targetPoint" />
          </mxGeometry>
        </mxCell>
        <mxCell id="NZRX_I5dMStPqbxFYzXw-182" value="" style="endArrow=classic;html=1;rounded=0;fillColor=#FFD966;strokeColor=#FF3333;" edge="1" parent="1">
          <mxGeometry width="50" height="50" relative="1" as="geometry">
            <mxPoint x="456" y="584" as="sourcePoint" />
            <mxPoint x="456" y="603" as="targetPoint" />
          </mxGeometry>
        </mxCell>
        <mxCell id="NZRX_I5dMStPqbxFYzXw-183" value="" style="endArrow=classic;html=1;rounded=0;strokeColor=#FF3333;" edge="1" parent="1">
          <mxGeometry width="50" height="50" relative="1" as="geometry">
            <mxPoint x="184" y="584" as="sourcePoint" />
            <mxPoint x="212" y="584" as="targetPoint" />
          </mxGeometry>
        </mxCell>
        <mxCell id="NZRX_I5dMStPqbxFYzXw-184" value="" style="endArrow=classic;html=1;rounded=0;strokeColor=#FF3333;" edge="1" parent="1">
          <mxGeometry width="50" height="50" relative="1" as="geometry">
            <mxPoint x="212" y="584" as="sourcePoint" />
            <mxPoint x="212" y="602" as="targetPoint" />
          </mxGeometry>
        </mxCell>
        <mxCell id="NZRX_I5dMStPqbxFYzXw-185" value="" style="endArrow=classic;html=1;rounded=0;strokeColor=#FF3333;" edge="1" parent="1">
          <mxGeometry width="50" height="50" relative="1" as="geometry">
            <mxPoint x="249" y="584" as="sourcePoint" />
            <mxPoint x="249" y="602" as="targetPoint" />
          </mxGeometry>
        </mxCell>
        <mxCell id="NZRX_I5dMStPqbxFYzXw-187" value="" style="endArrow=none;html=1;rounded=0;" edge="1" parent="1">
          <mxGeometry width="50" height="50" relative="1" as="geometry">
            <mxPoint x="369" y="1322" as="sourcePoint" />
            <mxPoint x="406" y="1322" as="targetPoint" />
          </mxGeometry>
        </mxCell>
        <mxCell id="NZRX_I5dMStPqbxFYzXw-190" value="" style="shape=partialRectangle;whiteSpace=wrap;html=1;bottom=0;right=0;fillColor=none;rotation=-180;" vertex="1" parent="1">
          <mxGeometry x="378" y="1323" width="10" height="21" as="geometry" />
        </mxCell>
        <mxCell id="NZRX_I5dMStPqbxFYzXw-192" value="" style="shape=partialRectangle;whiteSpace=wrap;html=1;bottom=0;right=0;fillColor=none;rotation=-90;" vertex="1" parent="1">
          <mxGeometry x="372.38" y="1349.13" width="21.5" height="11.25" as="geometry" />
        </mxCell>
        <mxCell id="NZRX_I5dMStPqbxFYzXw-193" value="" style="shape=partialRectangle;whiteSpace=wrap;html=1;bottom=0;right=0;fillColor=none;rotation=-180;" vertex="1" parent="1">
          <mxGeometry x="378.24" y="1366" width="10.38" height="13" as="geometry" />
        </mxCell>
        <mxCell id="NZRX_I5dMStPqbxFYzXw-194" value="" style="shape=partialRectangle;whiteSpace=wrap;html=1;bottom=0;right=0;fillColor=none;rotation=-90;" vertex="1" parent="1">
          <mxGeometry x="372.31" y="1384.82" width="21.5" height="9.87" as="geometry" />
        </mxCell>
        <mxCell id="NZRX_I5dMStPqbxFYzXw-196" value="" style="endArrow=none;html=1;rounded=0;" edge="1" parent="1">
          <mxGeometry width="50" height="50" relative="1" as="geometry">
            <mxPoint x="389" y="1400" as="sourcePoint" />
            <mxPoint x="389" y="1422" as="targetPoint" />
          </mxGeometry>
        </mxCell>
        <mxCell id="NZRX_I5dMStPqbxFYzXw-197" value="" style="endArrow=none;html=1;rounded=0;" edge="1" parent="1">
          <mxGeometry width="50" height="50" relative="1" as="geometry">
            <mxPoint x="278" y="1422" as="sourcePoint" />
            <mxPoint x="467" y="1421" as="targetPoint" />
          </mxGeometry>
        </mxCell>
        <mxCell id="NZRX_I5dMStPqbxFYzXw-198" value="" style="endArrow=none;html=1;rounded=0;" edge="1" parent="1">
          <mxGeometry width="50" height="50" relative="1" as="geometry">
            <mxPoint x="373" y="1364.76" as="sourcePoint" />
            <mxPoint x="373" y="1345" as="targetPoint" />
          </mxGeometry>
        </mxCell>
        <mxCell id="NZRX_I5dMStPqbxFYzXw-199" value="" style="endArrow=none;html=1;rounded=0;" edge="1" parent="1">
          <mxGeometry width="50" height="50" relative="1" as="geometry">
            <mxPoint x="373" y="1399.64" as="sourcePoint" />
            <mxPoint x="373" y="1379.88" as="targetPoint" />
          </mxGeometry>
        </mxCell>
        <mxCell id="NZRX_I5dMStPqbxFYzXw-200" value="" style="shape=partialRectangle;whiteSpace=wrap;html=1;bottom=1;right=1;left=1;top=0;fillColor=none;routingCenterX=-0.5;rotation=90;" vertex="1" parent="1">
          <mxGeometry x="348.32" y="1366.32" width="36.25" height="10.12" as="geometry" />
        </mxCell>
        <mxCell id="NZRX_I5dMStPqbxFYzXw-203" value="" style="endArrow=none;html=1;rounded=0;" edge="1" parent="1">
          <mxGeometry width="50" height="50" relative="1" as="geometry">
            <mxPoint x="388.75" y="1372.31" as="sourcePoint" />
            <mxPoint x="465.25" y="1372.69" as="targetPoint" />
          </mxGeometry>
        </mxCell>
        <mxCell id="NZRX_I5dMStPqbxFYzXw-204" value="" style="endArrow=none;html=1;rounded=0;" edge="1" parent="1">
          <mxGeometry width="50" height="50" relative="1" as="geometry">
            <mxPoint x="301.5" y="1407.44" as="sourcePoint" />
            <mxPoint x="299.5" y="1383.44" as="targetPoint" />
            <Array as="points">
              <mxPoint x="294.5" y="1404.44" />
              <mxPoint x="301.5" y="1399.44" />
              <mxPoint x="293.5" y="1396.44" />
              <mxPoint x="300.5" y="1391.44" />
              <mxPoint x="293.5" y="1388.44" />
            </Array>
          </mxGeometry>
        </mxCell>
        <mxCell id="NZRX_I5dMStPqbxFYzXw-208" value="" style="shape=partialRectangle;whiteSpace=wrap;html=1;bottom=0;right=0;fillColor=none;rotation=-90;" vertex="1" parent="1">
          <mxGeometry x="306.1" y="1387.42" width="74.07" height="41.25" as="geometry" />
        </mxCell>
        <mxCell id="NZRX_I5dMStPqbxFYzXw-209" value="" style="endArrow=none;html=1;rounded=0;" edge="1" parent="1">
          <mxGeometry width="50" height="50" relative="1" as="geometry">
            <mxPoint x="300.5" y="1421.87" as="sourcePoint" />
            <mxPoint x="300.5" y="1407" as="targetPoint" />
          </mxGeometry>
        </mxCell>
        <mxCell id="NZRX_I5dMStPqbxFYzXw-211" value="" style="endArrow=none;html=1;rounded=0;" edge="1" parent="1">
          <mxGeometry width="50" height="50" relative="1" as="geometry">
            <mxPoint x="299.5" y="1383.34" as="sourcePoint" />
            <mxPoint x="299.5" y="1371" as="targetPoint" />
          </mxGeometry>
        </mxCell>
        <mxCell id="NZRX_I5dMStPqbxFYzXw-213" value="" style="shape=partialRectangle;whiteSpace=wrap;html=1;bottom=0;right=0;fillColor=none;rotation=90;" vertex="1" parent="1">
          <mxGeometry x="350.97" y="1441.04" width="13.69" height="21.63" as="geometry" />
        </mxCell>
        <mxCell id="NZRX_I5dMStPqbxFYzXw-214" value="" style="shape=partialRectangle;whiteSpace=wrap;html=1;bottom=0;right=0;fillColor=none;rotation=-90;" vertex="1" parent="1">
          <mxGeometry x="281.5" y="1442" width="70.57" height="31.75" as="geometry" />
        </mxCell>
        <mxCell id="NZRX_I5dMStPqbxFYzXw-215" value="" style="shape=partialRectangle;whiteSpace=wrap;html=1;bottom=0;right=0;fillColor=none;rotation=-180;" vertex="1" parent="1">
          <mxGeometry x="301" y="1480" width="68" height="13" as="geometry" />
        </mxCell>
        <mxCell id="NZRX_I5dMStPqbxFYzXw-216" value="" style="ellipse;whiteSpace=wrap;html=1;aspect=fixed;" vertex="1" parent="1">
          <mxGeometry x="358.24" y="1459" width="20" height="20" as="geometry" />
        </mxCell>
        <mxCell id="NZRX_I5dMStPqbxFYzXw-217" value="" style="shape=partialRectangle;whiteSpace=wrap;html=1;bottom=0;right=0;fillColor=none;rotation=-180;" vertex="1" parent="1">
          <mxGeometry x="396.5" y="1372.64" width="28" height="72.18" as="geometry" />
        </mxCell>
        <mxCell id="NZRX_I5dMStPqbxFYzXw-218" value="" style="shape=partialRectangle;whiteSpace=wrap;html=1;bottom=0;right=0;fillColor=none;rotation=-180;" vertex="1" parent="1">
          <mxGeometry x="397" y="1420.82" width="49" height="72.18" as="geometry" />
        </mxCell>
        <mxCell id="NZRX_I5dMStPqbxFYzXw-219" value="" style="shape=partialRectangle;whiteSpace=wrap;html=1;bottom=0;right=0;fillColor=none;" vertex="1" parent="1">
          <mxGeometry x="266" y="1370.64" width="94.5" height="14.36" as="geometry" />
        </mxCell>
        <mxCell id="NZRX_I5dMStPqbxFYzXw-220" value="" style="shape=partialRectangle;whiteSpace=wrap;html=1;bottom=0;right=0;fillColor=none;rotation=-90;" vertex="1" parent="1">
          <mxGeometry x="286" y="1386" width="16" height="56" as="geometry" />
        </mxCell>
        <mxCell id="NZRX_I5dMStPqbxFYzXw-221" value="" style="ellipse;whiteSpace=wrap;html=1;aspect=fixed;" vertex="1" parent="1">
          <mxGeometry x="256" y="1385" width="20" height="20" as="geometry" />
        </mxCell>
        <mxCell id="NZRX_I5dMStPqbxFYzXw-222" value="&lt;font style=&quot;font-size: 10px;&quot;&gt;Rs&lt;/font&gt;" style="text;html=1;align=center;verticalAlign=middle;resizable=0;points=[];autosize=1;strokeColor=none;fillColor=none;" vertex="1" parent="1">
          <mxGeometry x="269.5" y="1382" width="30" height="26" as="geometry" />
        </mxCell>
        <mxCell id="NZRX_I5dMStPqbxFYzXw-223" value="" style="endArrow=classic;html=1;rounded=0;" edge="1" parent="1">
          <mxGeometry width="50" height="50" relative="1" as="geometry">
            <mxPoint x="265.73" y="1403.5" as="sourcePoint" />
            <mxPoint x="265.73" y="1386.5" as="targetPoint" />
          </mxGeometry>
        </mxCell>
        <mxCell id="NZRX_I5dMStPqbxFYzXw-224" value="" style="endArrow=classic;html=1;rounded=0;" edge="1" parent="1">
          <mxGeometry width="50" height="50" relative="1" as="geometry">
            <mxPoint x="369" y="1461" as="sourcePoint" />
            <mxPoint x="369" y="1477" as="targetPoint" />
          </mxGeometry>
        </mxCell>
        <mxCell id="NZRX_I5dMStPqbxFYzXw-225" value="&lt;font style=&quot;font-size: 8px;&quot;&gt;Iin1&lt;/font&gt;" style="text;html=1;align=center;verticalAlign=middle;resizable=0;points=[];autosize=1;strokeColor=none;fillColor=none;" vertex="1" parent="1">
          <mxGeometry x="229.5" y="1382" width="31" height="26" as="geometry" />
        </mxCell>
        <mxCell id="NZRX_I5dMStPqbxFYzXw-226" value="&lt;font style=&quot;font-size: 8px;&quot;&gt;Y&amp;nbsp; &amp;nbsp;Vout&lt;/font&gt;" style="text;html=1;align=center;verticalAlign=middle;resizable=0;points=[];autosize=1;strokeColor=none;fillColor=none;" vertex="1" parent="1">
          <mxGeometry x="316.5" y="1454" width="46" height="26" as="geometry" />
        </mxCell>
        <mxCell id="NZRX_I5dMStPqbxFYzXw-228" value="" style="endArrow=none;html=1;rounded=0;" edge="1" parent="1">
          <mxGeometry width="50" height="50" relative="1" as="geometry">
            <mxPoint x="340" y="1389" as="sourcePoint" />
            <mxPoint x="340" y="1370.64" as="targetPoint" />
          </mxGeometry>
        </mxCell>
        <mxCell id="NZRX_I5dMStPqbxFYzXw-229" value="" style="endArrow=none;html=1;rounded=0;" edge="1" parent="1">
          <mxGeometry width="50" height="50" relative="1" as="geometry">
            <mxPoint x="341" y="1421.82" as="sourcePoint" />
            <mxPoint x="341" y="1403.46" as="targetPoint" />
          </mxGeometry>
        </mxCell>
        <mxCell id="NZRX_I5dMStPqbxFYzXw-231" value="" style="rounded=0;whiteSpace=wrap;html=1;" vertex="1" parent="1">
          <mxGeometry x="336" y="1382.33" width="9" height="25.67" as="geometry" />
        </mxCell>
        <mxCell id="NZRX_I5dMStPqbxFYzXw-234" value="" style="endArrow=none;html=1;rounded=0;" edge="1" parent="1">
          <mxGeometry width="50" height="50" relative="1" as="geometry">
            <mxPoint x="408.42" y="1391" as="sourcePoint" />
            <mxPoint x="408.42" y="1372.64" as="targetPoint" />
          </mxGeometry>
        </mxCell>
        <mxCell id="NZRX_I5dMStPqbxFYzXw-235" value="" style="endArrow=none;html=1;rounded=0;" edge="1" parent="1">
          <mxGeometry width="50" height="50" relative="1" as="geometry">
            <mxPoint x="408.42" y="1420.82" as="sourcePoint" />
            <mxPoint x="408.42" y="1402.46" as="targetPoint" />
          </mxGeometry>
        </mxCell>
        <mxCell id="NZRX_I5dMStPqbxFYzXw-232" value="" style="rounded=0;whiteSpace=wrap;html=1;" vertex="1" parent="1">
          <mxGeometry x="404" y="1382" width="9" height="25.67" as="geometry" />
        </mxCell>
        <mxCell id="NZRX_I5dMStPqbxFYzXw-236" value="&lt;font style=&quot;font-size: 8px;&quot;&gt;Y&lt;/font&gt;" style="text;html=1;align=center;verticalAlign=middle;resizable=0;points=[];autosize=1;strokeColor=none;fillColor=none;" vertex="1" parent="1">
          <mxGeometry x="384" y="1379" width="23" height="26" as="geometry" />
        </mxCell>
        <mxCell id="NZRX_I5dMStPqbxFYzXw-237" value="&lt;font style=&quot;font-size: 8px;&quot;&gt;Y&lt;/font&gt;" style="text;html=1;align=center;verticalAlign=middle;resizable=0;points=[];autosize=1;strokeColor=none;fillColor=none;" vertex="1" parent="1">
          <mxGeometry x="338.5" y="1381.67" width="23" height="26" as="geometry" />
        </mxCell>
        <mxCell id="NZRX_I5dMStPqbxFYzXw-238" value="&lt;font style=&quot;font-size: 4px;&quot;&gt;22&lt;/font&gt;" style="text;html=1;align=center;verticalAlign=middle;resizable=0;points=[];autosize=1;strokeColor=none;fillColor=none;" vertex="1" parent="1">
          <mxGeometry x="344" y="1382.33" width="22" height="26" as="geometry" />
        </mxCell>
        <mxCell id="NZRX_I5dMStPqbxFYzXw-239" value="&lt;font style=&quot;font-size: 4px;&quot;&gt;11&lt;/font&gt;" style="text;html=1;align=center;verticalAlign=middle;resizable=0;points=[];autosize=1;strokeColor=none;fillColor=none;" vertex="1" parent="1">
          <mxGeometry x="389" y="1379" width="22" height="26" as="geometry" />
        </mxCell>
        <mxCell id="NZRX_I5dMStPqbxFYzXw-240" value="&lt;font style=&quot;font-size: 4px;&quot;&gt;-1&lt;/font&gt;" style="text;html=1;align=center;verticalAlign=middle;resizable=0;points=[];autosize=1;strokeColor=none;fillColor=none;" vertex="1" parent="1">
          <mxGeometry x="344" y="1376.44" width="22" height="26" as="geometry" />
        </mxCell>
        <mxCell id="NZRX_I5dMStPqbxFYzXw-241" value="&lt;font style=&quot;font-size: 4px;&quot;&gt;-1&lt;/font&gt;" style="text;html=1;align=center;verticalAlign=middle;resizable=0;points=[];autosize=1;strokeColor=none;fillColor=none;" vertex="1" parent="1">
          <mxGeometry x="390" y="1372.64" width="22" height="26" as="geometry" />
        </mxCell>
        <mxCell id="NZRX_I5dMStPqbxFYzXw-242" value="&lt;font style=&quot;font-size: 4px;&quot;&gt;21&lt;/font&gt;" style="text;html=1;align=center;verticalAlign=middle;resizable=0;points=[];autosize=1;strokeColor=none;fillColor=none;" vertex="1" parent="1">
          <mxGeometry x="320.5" y="1454" width="22" height="26" as="geometry" />
        </mxCell>
        <mxCell id="NZRX_I5dMStPqbxFYzXw-243" value="&lt;font style=&quot;font-size: 10px;&quot;&gt;.&lt;/font&gt;" style="text;html=1;align=center;verticalAlign=middle;resizable=0;points=[];autosize=1;strokeColor=none;fillColor=none;" vertex="1" parent="1">
          <mxGeometry x="324.5" y="1452" width="21" height="26" as="geometry" />
        </mxCell>
        <mxCell id="NZRX_I5dMStPqbxFYzXw-244" value="&lt;font style=&quot;font-size: 8px;&quot;&gt;Vo&lt;/font&gt;" style="text;html=1;align=center;verticalAlign=middle;resizable=0;points=[];autosize=1;strokeColor=none;fillColor=none;" vertex="1" parent="1">
          <mxGeometry x="445" y="1382.3300000000002" width="27" height="26" as="geometry" />
        </mxCell>
        <mxCell id="NZRX_I5dMStPqbxFYzXw-245" value="&lt;font style=&quot;font-size: 8px;&quot;&gt;+&lt;/font&gt;" style="text;html=1;align=center;verticalAlign=middle;resizable=0;points=[];autosize=1;strokeColor=none;fillColor=none;" vertex="1" parent="1">
          <mxGeometry x="446" y="1364.8200000000002" width="23" height="26" as="geometry" />
        </mxCell>
        <mxCell id="NZRX_I5dMStPqbxFYzXw-246" value="&lt;span style=&quot;font-family: Symbol;&quot; lang=&quot;EN-US&quot;&gt;&lt;font style=&quot;font-size: 8px;&quot;&gt;-&lt;/font&gt;&lt;/span&gt;" style="text;html=1;align=center;verticalAlign=middle;resizable=0;points=[];autosize=1;strokeColor=none;fillColor=none;" vertex="1" parent="1">
          <mxGeometry x="447" y="1400.5000000000002" width="22" height="27" as="geometry" />
        </mxCell>
        <mxCell id="NZRX_I5dMStPqbxFYzXw-247" value="" style="rounded=0;whiteSpace=wrap;html=1;fillColor=none;strokeColor=#FF3333;" vertex="1" parent="1">
          <mxGeometry x="316.5" y="1315" width="122" height="115.54" as="geometry" />
        </mxCell>
        <mxCell id="NZRX_I5dMStPqbxFYzXw-248" value="" style="rounded=0;whiteSpace=wrap;html=1;fillColor=none;strokeColor=#FF3333;" vertex="1" parent="1">
          <mxGeometry x="317" y="1437" width="122" height="66" as="geometry" />
        </mxCell>
        <mxCell id="NZRX_I5dMStPqbxFYzXw-249" value="R" style="text;html=1;align=center;verticalAlign=middle;resizable=0;points=[];autosize=1;strokeColor=none;fillColor=none;" vertex="1" parent="1">
          <mxGeometry x="361" y="1286" width="27" height="26" as="geometry" />
        </mxCell>
        <mxCell id="NZRX_I5dMStPqbxFYzXw-250" value="&lt;font style=&quot;font-size: 10px;&quot;&gt;o&lt;/font&gt;" style="text;html=1;align=center;verticalAlign=middle;resizable=0;points=[];autosize=1;strokeColor=none;fillColor=none;" vertex="1" parent="1">
          <mxGeometry x="371" y="1287" width="24" height="26" as="geometry" />
        </mxCell>
        <mxCell id="NZRX_I5dMStPqbxFYzXw-253" value="k" style="text;html=1;align=center;verticalAlign=middle;resizable=0;points=[];autosize=1;strokeColor=none;fillColor=none;" vertex="1" parent="1">
          <mxGeometry x="369" y="1507" width="24" height="26" as="geometry" />
        </mxCell>
        <mxCell id="NZRX_I5dMStPqbxFYzXw-254" value="&lt;font style=&quot;font-size: 8px;&quot;&gt;Vx&lt;/font&gt;" style="text;html=1;align=center;verticalAlign=middle;resizable=0;points=[];autosize=1;strokeColor=none;fillColor=none;" vertex="1" parent="1">
          <mxGeometry x="280.5" y="1346.64" width="27" height="26" as="geometry" />
        </mxCell>
      </root>
    </mxGraphModel>
  </diagram>
</mxfile>
